<?xml version="1.0" standalone="no"?>
<!DOCTYPE svg PUBLIC "-//W3C//DTD SVG 20010904//EN"
 "http://www.w3.org/TR/2001/REC-SVG-20010904/DTD/svg10.dtd">
<svg version="1.0" xmlns="http://www.w3.org/2000/svg"
 width="512.000000pt" height="512.000000pt" viewBox="0 0 512.000000 512.000000"
 preserveAspectRatio="xMidYMid meet">

<g transform="translate(0.000000,512.000000) scale(0.100000,-0.100000)"
fill="#000000" stroke="none">
<path d="M415 4786 c-41 -18 -83 -69 -90 -109 -3 -18 -4 -982 -3 -2144 l3
-2112 21 -27 c11 -15 33 -37 48 -48 27 -21 39 -21 617 -24 l589 -2 0 2240 0
2240 -577 0 c-458 -1 -584 -4 -608 -14z"/>
<path d="M1920 2560 l0 -2240 640 0 640 0 0 2240 0 2240 -640 0 -640 0 0
-2240z"/>
<path d="M3520 2560 l0 -2240 589 2 c578 3 590 3 617 24 15 11 37 33 48 48
l21 27 0 2139 0 2139 -21 27 c-11 15 -33 37 -48 48 -27 21 -39 21 -617 24
l-589 2 0 -2240z"/>
</g>
</svg>
